<svg width="21" height="14" viewBox="0 0 21 14" fill="none" xmlns="http://www.w3.org/2000/svg">
<path d="M10.5 13.3261C10.2723 13.3261 10.0519 13.2771 9.83891 13.1792C9.6248 13.0813 9.44656 12.9508 9.3042 12.7876L1.44587 3.77923C1.13267 3.4202 0.976074 2.96326 0.976074 2.4084C0.976074 1.85354 1.13267 1.39659 1.44587 1.03756C1.75906 0.678537 2.15767 0.499023 2.6417 0.499023C3.12573 0.499023 3.52434 0.678537 3.83753 1.03756L10.5 8.67507L17.1625 1.03756C17.4757 0.678537 17.8743 0.499023 18.3584 0.499023C18.8424 0.499023 19.241 0.678537 19.5542 1.03756C19.8674 1.39659 20.024 1.85354 20.024 2.4084C20.024 2.96326 19.8674 3.4202 19.5542 3.77923L11.6959 12.7876C11.525 12.9834 11.34 13.1218 11.1407 13.2027C10.9414 13.285 10.7278 13.3261 10.5 13.3261Z" fill="#353A3E"/>
</svg>
