<svg width="17" height="16" viewBox="0 0 17 16" fill="none" xmlns="http://www.w3.org/2000/svg">
<path d="M8.0249 0C9.88142 0 11.6619 0.722447 12.9746 2.00841C14.2874 3.29437 15.0249 5.03852 15.0249 6.85714C15.0249 9.696 12.816 12.6705 8.49157 15.8476C8.35694 15.9465 8.19319 16 8.0249 16C7.85661 16 7.69287 15.9465 7.55824 15.8476C3.23379 12.6705 1.0249 9.696 1.0249 6.85714C1.0249 5.03852 1.7624 3.29437 3.07515 2.00841C4.38791 0.722447 6.16839 0 8.0249 0ZM8.0249 4.57143C7.40606 4.57143 6.81257 4.81224 6.37499 5.2409C5.9374 5.66955 5.69157 6.25093 5.69157 6.85714C5.69157 7.46335 5.9374 8.04473 6.37499 8.47339C6.81257 8.90204 7.40606 9.14286 8.0249 9.14286C8.64374 9.14286 9.23723 8.90204 9.67482 8.47339C10.1124 8.04473 10.3582 7.46335 10.3582 6.85714C10.3582 6.25093 10.1124 5.66955 9.67482 5.2409C9.23723 4.81224 8.64374 4.57143 8.0249 4.57143Z" fill="#353A3E"/>
</svg>
