<svg width="56" height="59" viewBox="0 0 56 59" fill="none" xmlns="http://www.w3.org/2000/svg">
<path d="M29.1417 1.31059L29.486 1.63737C33.6138 5.55587 38.9803 11.7144 43.3183 18.304C47.6415 24.871 51.0076 31.9608 51.0076 37.7192C51.0076 42.5716 49.2526 47.0298 46.3247 50.5626C42.3192 55.3975 36.1102 58.5 29.1417 58.5C17.7346 58.5 8.33961 50.1855 7.36502 39.5419L29.1417 1.31059ZM29.1417 1.31059L28.7975 1.63737M29.1417 1.31059L28.7975 1.63737M28.7975 1.63737C24.6696 5.55587 19.3033 11.7144 14.9654 18.304C10.6423 24.871 7.27637 31.9608 7.27637 37.7192C7.27637 38.3363 7.30987 38.9427 7.365 39.5417L28.7975 1.63737ZM14.155 38.1856L14.155 38.1853C14.1167 37.7705 14.0941 37.356 14.0941 36.9382C14.0941 33.0199 16.4135 28.0449 19.5472 23.2845C22.5465 18.7285 26.2329 14.4559 29.1419 11.6378C32.0509 14.4559 35.7374 18.7285 38.7367 23.2845C41.8705 28.0449 44.1899 33.0199 44.1899 36.9382C44.1899 40.2558 42.9912 43.3076 40.9808 45.7333L40.9807 45.7334C38.2287 49.055 33.9537 51.1966 29.1419 51.1966C21.2545 51.1966 14.8204 45.4544 14.155 38.1856Z" fill="url(#paint0_linear_121_812)" stroke="white"/>
<path fill-rule="evenodd" clip-rule="evenodd" d="M24.5797 16.7577C22.2523 27.2608 32.8169 30.3848 43.8201 32.4279C51.0331 33.767 57.8305 37.0749 54.4192 41.2988C51.497 30.719 4.26282 38.6972 0.828359 30.0656C-1.25267 24.8362 17.6037 16.4975 24.5797 16.7577Z" fill="url(#paint1_linear_121_812)"/>
<path fill-rule="evenodd" clip-rule="evenodd" d="M54.2987 43.1688C54.2121 45.758 43.8692 48.962 34.4855 50.5405C35.4692 44.1858 29.4205 38.8319 20.4434 35.437C26.8 35.9 52.8191 36.4963 54.2987 43.1688Z" fill="url(#paint2_linear_121_812)"/>
<path fill-rule="evenodd" clip-rule="evenodd" d="M27.9635 31.201C23.1247 30.7811 18.9854 30.0633 15.674 29.0635C13.6792 28.4612 11.9849 27.7567 10.6189 26.9533C8.51999 25.7188 7.19699 24.2509 6.75187 22.5625C2.72621 24.9733 -0.0382891 27.6901 0.828362 29.868C1.5708 31.7341 4.3604 32.8239 8.30675 33.4926C9.98964 33.7779 11.8829 33.9864 13.9175 34.1462C18.1895 34.4812 23.0845 34.6004 27.9635 34.7588C28.7992 34.786 29.6344 34.8141 30.4659 34.8448C35.5952 35.0341 40.5844 35.3156 44.6797 35.9907C46.946 36.3641 48.9385 36.8579 50.5297 37.5232C52.599 38.3885 53.9891 39.5437 54.4192 41.1009C56.7692 38.1913 54.2745 35.7162 50.1366 34.0199C48.2914 33.2635 46.1195 32.6619 43.9047 32.2459C43.8765 32.2406 43.8482 32.2352 43.8201 32.2301C42.8001 32.0408 41.7841 31.8422 40.7816 31.6291C37.0972 31.6697 33.6481 31.5877 30.4659 31.3876C29.6124 31.3339 28.7781 31.2715 27.9635 31.201Z" fill="url(#paint3_linear_121_812)"/>
<path fill-rule="evenodd" clip-rule="evenodd" d="M44.2222 41.2177C47.7901 43.0239 48.9337 45.0555 47.6535 47.3118C47.9282 47.2171 48.1967 47.1217 48.4589 47.0257C51.9129 45.761 54.2574 44.3959 54.2985 43.1691C53.9854 41.7569 52.5734 40.6169 50.4811 39.6926C48.8886 38.9891 46.9021 38.4107 44.7066 37.9325C40.3044 36.9738 35.0613 36.4177 30.4658 36.0643C29.6058 35.9982 28.7684 35.9392 27.9634 35.8859C24.7144 35.6709 21.9939 35.5499 20.4434 35.437C20.8126 35.5766 21.1769 35.7196 21.5358 35.8657C23.8287 36.1625 25.9714 36.475 27.9634 36.8033C28.8257 36.9452 29.6598 37.0904 30.4658 37.2383C34.7132 38.018 38.1776 38.8798 40.8587 39.8233C42.1517 40.2722 43.2728 40.7369 44.2222 41.2177Z" fill="url(#paint4_linear_121_812)"/>
<path d="M25.2325 16.9135C24.149 21.8036 26.071 24.9792 29.5469 27.1708C33.1765 29.4596 38.4976 30.7308 43.9353 31.7402C46.8997 32.2905 49.8069 33.1734 52.0021 34.3183C53.3933 35.044 54.5113 35.8832 55.2005 36.8211C55.9657 37.8631 56.2229 39.0125 55.7911 40.2534C55.6207 40.7431 55.3376 41.2419 54.9303 41.7462L54.1219 42.7471L53.7744 41.4898C52.3728 36.4156 38.8315 35.9919 25.8406 35.5858C13.6906 35.206 2.00411 34.8403 0.209747 30.3306C0.0545257 29.9403 -0.0122432 29.5364 0.0018332 29.1226C0.060802 27.406 1.57193 25.5778 3.86829 23.8551C6.04671 22.2212 8.963 20.6397 11.9887 19.335C16.6666 17.3179 21.6447 15.952 24.6032 16.0621L25.4145 16.0924L25.2325 16.9135ZM28.8549 28.3604C25.086 25.9841 22.9165 22.5895 23.7613 17.4601C20.9285 17.5935 16.613 18.8481 12.4973 20.6228C9.56106 21.8889 6.74102 23.416 4.64934 24.985C2.67617 26.4653 1.38113 27.9367 1.33871 29.1717C1.3313 29.3873 1.3663 29.598 1.44695 29.8011C2.909 33.4758 14.1698 33.8281 25.8772 34.1942C38.362 34.5844 51.3351 34.9913 54.5004 39.8659L54.5326 39.7786C54.7907 39.0367 54.6209 38.3272 54.136 37.667C53.575 36.9033 52.6176 36.1954 51.4044 35.5626C49.3372 34.4842 46.5594 33.6455 43.7048 33.1156C38.1398 32.0826 32.6759 30.7698 28.8549 28.3604Z" fill="#FEFEFE"/>
<path d="M54.9673 42.5969C54.9157 44.1358 52.4862 45.6757 48.8882 47.0141C45.0042 48.4589 39.659 49.7816 34.5903 50.6341L33.6778 50.7875L33.8249 49.8373C34.2592 47.0305 33.1869 44.4148 31.0292 42.0941C28.5947 39.4753 24.7998 37.2316 20.2156 35.4981L15.7275 33.8005L20.4882 34.1473C21.2478 34.2025 22.2111 34.2562 23.3604 34.3199C29.6396 34.6688 41.1859 34.8931 48.4701 37.2797C51.9207 38.4104 54.494 40.355 54.9517 42.4195L54.9705 42.5038L54.9673 42.5969ZM48.4374 45.6989C51.4216 44.5888 53.4626 43.4945 53.6207 42.6402C52.2711 37.5227 33.6835 36.2966 24.3551 35.7709C27.4865 37.2978 30.1078 39.0994 31.9887 41.1227C34.2036 43.5051 35.407 46.1937 35.2455 49.109C39.963 48.2704 44.8366 47.0384 48.4374 45.6989Z" fill="#FEFEFE"/>
<defs>
<linearGradient id="paint0_linear_121_812" x1="35.8248" y1="3.09024" x2="21.418" y2="56.6296" gradientUnits="userSpaceOnUse">
<stop stop-color="#01A4CF"/>
<stop offset="0.631373" stop-color="#0171AA"/>
<stop offset="1" stop-color="#003E85"/>
</linearGradient>
<linearGradient id="paint1_linear_121_812" x1="22.3767" y1="16.3549" x2="33.4456" y2="44.6467" gradientUnits="userSpaceOnUse">
<stop stop-color="#003E85"/>
<stop offset="1" stop-color="#04C0E6"/>
</linearGradient>
<linearGradient id="paint2_linear_121_812" x1="36.8281" y1="33.0886" x2="38.6395" y2="49.9619" gradientUnits="userSpaceOnUse">
<stop stop-color="#004389"/>
<stop offset="0.470588" stop-color="#0081B6"/>
<stop offset="1" stop-color="#01BFE3"/>
</linearGradient>
<linearGradient id="paint3_linear_121_812" x1="27.8098" y1="41.1161" x2="28.2169" y2="22.5479" gradientUnits="userSpaceOnUse">
<stop stop-color="#01B0D8"/>
<stop offset="0.639216" stop-color="#0190C1"/>
<stop offset="1" stop-color="#006FA9"/>
</linearGradient>
<linearGradient id="paint4_linear_121_812" x1="36.7908" y1="47.5011" x2="38.0469" y2="35.2576" gradientUnits="userSpaceOnUse">
<stop stop-color="#01B0D8"/>
<stop offset="1" stop-color="#00468B"/>
</linearGradient>
</defs>
</svg>
