<svg width="109" height="106" viewBox="0 0 109 106" fill="none" xmlns="http://www.w3.org/2000/svg">
<path d="M27.0798 68.5913L27.0798 68.591C27.0044 67.8185 26.9596 67.0439 26.9596 66.2614C26.9596 62.6096 28.0969 58.471 30.0117 54.1335C31.9244 49.8007 34.5997 45.2987 37.6442 40.9285C43.6177 32.3538 50.9859 24.3244 56.7222 19.1257C62.4586 24.3244 69.8268 32.3538 75.8005 40.9285C78.845 45.2987 81.5204 49.8007 83.4331 54.1335C85.3479 58.471 86.4853 62.6096 86.4853 66.2614C86.4853 72.4589 84.1152 78.162 80.1392 82.6952L80.1391 82.6953C74.6968 88.9025 66.2403 92.9062 56.7222 92.9062C41.1188 92.9062 28.3955 82.1717 27.0798 68.5913ZM57.0557 1.6278L56.7219 1.32831L56.388 1.6278C48.3779 8.81304 37.9553 20.1154 29.5313 32.2076C25.3187 38.2544 21.599 44.5086 18.9309 50.5526C16.2649 56.5918 14.6357 62.4505 14.6357 67.6977C14.6357 68.8189 14.7002 69.9221 14.8066 71.0145C16.683 90.3801 34.7699 105.5 56.7219 105.5C70.1332 105.5 82.0831 99.8585 89.7937 91.0635C95.4299 84.6374 98.8091 76.5273 98.8091 67.6977C98.8091 62.4505 97.1799 56.5918 94.5137 50.5526C91.8456 44.5086 88.1257 38.2544 83.913 32.2076C75.4887 20.1154 65.0658 8.81304 57.0557 1.6278Z" fill="url(#paint0_linear_112_292)" stroke="white"/>
<path fill-rule="evenodd" clip-rule="evenodd" d="M47.8423 29.1435C43.3122 48.4618 63.8754 54.2077 85.2923 57.9655C99.332 60.4285 112.563 66.5127 105.923 74.2817C100.235 54.8225 8.29697 69.4966 1.61204 53.6206C-2.43853 44.0023 34.264 28.665 47.8423 29.1435Z" fill="url(#paint1_linear_112_292)"/>
<path fill-rule="evenodd" clip-rule="evenodd" d="M105.689 77.721C105.52 82.4833 85.3887 88.3763 67.1241 91.2796C69.0387 79.5916 57.2654 69.7441 39.792 63.5C52.1648 64.3515 102.809 65.4484 105.689 77.721Z" fill="url(#paint2_linear_112_292)"/>
<path fill-rule="evenodd" clip-rule="evenodd" d="M54.4287 55.7088C45.0102 54.9363 36.9535 53.6161 30.5081 51.7773C26.6253 50.6694 23.3274 49.3736 20.6686 47.8961C16.5832 45.6253 14.0081 42.9256 13.1417 39.8201C5.30607 44.2541 -0.0748235 49.2513 1.61205 53.257C3.05715 56.6892 8.48691 58.6937 16.1682 59.9236C19.4438 60.4484 23.129 60.8319 27.0892 61.1258C35.4043 61.742 44.9321 61.9613 54.4287 62.2526C56.0552 62.3025 57.681 62.3542 59.2994 62.4107C69.2833 62.7589 78.9943 63.2767 86.9655 64.5183C91.3767 65.2052 95.2551 66.1135 98.3523 67.3372C102.38 68.9287 105.086 71.0534 105.923 73.9174C110.497 68.5659 105.641 64.0135 97.5869 60.8934C93.9955 59.5022 89.7679 58.3958 85.4571 57.6306C85.4023 57.6208 85.3471 57.611 85.2923 57.6015C83.307 57.2533 81.3295 56.888 79.3782 56.4962C72.2068 56.5708 65.4934 56.4201 59.2994 56.0519C57.6381 55.9532 56.0141 55.8385 54.4287 55.7088Z" fill="url(#paint3_linear_112_292)"/>
<path fill-rule="evenodd" clip-rule="evenodd" d="M86.0759 74.1323C93.0204 77.4545 95.2463 81.1911 92.7545 85.3411C93.2892 85.167 93.812 84.9915 94.3222 84.8148C101.045 82.4887 105.609 79.978 105.689 77.7214C105.079 75.124 102.331 73.0273 98.2583 71.3273C95.1586 70.0333 91.292 68.9695 87.0186 68.09C78.4502 66.3265 68.2449 65.3038 59.2999 64.6538C57.626 64.5321 55.9961 64.4236 54.4292 64.3256C48.1053 63.9301 42.8099 63.7076 39.792 63.5C40.5107 63.7568 41.2197 64.0197 41.9184 64.2885C46.3814 64.8344 50.5519 65.4091 54.4292 66.0129C56.1076 66.2741 57.7311 66.541 59.2999 66.8131C67.5673 68.2473 74.3104 69.8322 79.5291 71.5676C82.0457 72.3932 84.228 73.248 86.0759 74.1323Z" fill="url(#paint4_linear_112_292)"/>
<path d="M49.1133 29.4302C47.0043 38.4244 50.7453 44.2653 57.511 48.2962C64.5758 52.506 74.9329 54.8441 85.517 56.7007C91.287 57.7128 96.9456 59.3368 101.218 61.4426C103.926 62.7773 106.102 64.3208 107.444 66.046C108.933 67.9624 109.434 70.0765 108.593 72.3589C108.262 73.2596 107.711 74.177 106.918 75.1046L105.344 76.9456L104.668 74.6329C101.94 65.3001 75.5827 64.5207 50.297 63.7738C26.6478 63.0752 3.90086 62.4026 0.408257 54.1081C0.10613 53.3902 -0.0238306 52.6473 0.0035682 51.8861C0.118347 48.7289 3.05964 45.3663 7.52934 42.1978C11.7695 39.1925 17.4458 36.2836 23.3351 33.884C32.4404 30.1739 42.1299 27.6617 47.8885 27.8642L49.4676 27.9199L49.1133 29.4302ZM56.164 50.4843C48.8282 46.1136 44.6054 39.8699 46.2497 30.4354C40.7359 30.6809 32.336 32.9884 24.3252 36.2527C18.6099 38.5813 13.1209 41.39 9.04961 44.2759C5.20897 46.9986 2.68828 49.7049 2.60571 51.9764C2.59127 52.373 2.6594 52.7605 2.81638 53.1342C5.66215 59.8929 27.5804 60.5408 50.368 61.2142C74.6689 61.9321 99.9202 62.6805 106.081 71.6462L106.144 71.4856C106.646 70.1209 106.316 68.8161 105.372 67.6018C104.28 66.1971 102.416 64.8951 100.055 63.7312C96.0314 61.7478 90.6246 60.205 85.0682 59.2304C74.2364 57.3304 63.6013 54.9158 56.164 50.4843Z" fill="#FEFEFE"/>
<path d="M106.99 76.6692C106.889 79.4997 102.16 82.3321 95.1571 84.7937C87.5973 87.4512 77.1932 89.884 67.3274 91.4519L65.5513 91.7341L65.8375 89.9864C66.6828 84.8239 64.5957 80.0129 60.3959 75.7445C55.6574 70.9277 48.2708 66.801 39.3481 63.6125L30.6123 60.4902L39.8786 61.128C41.3571 61.2296 43.232 61.3283 45.4691 61.4455C57.6912 62.0872 80.1652 62.4999 94.3433 66.8895C101.06 68.969 106.068 72.5458 106.959 76.3429L106.996 76.498L106.99 76.6692ZM94.2796 82.3747C100.088 80.333 104.061 78.3201 104.369 76.749C101.742 67.3364 65.5624 65.0813 47.4052 64.1144C53.5003 66.9227 58.6024 70.2364 62.2634 73.9578C66.5747 78.3398 68.9169 83.2848 68.6025 88.6468C77.7848 87.1045 87.2711 84.8385 94.2796 82.3747Z" fill="#FEFEFE"/>
<defs>
<linearGradient id="paint0_linear_112_292" x1="69.73" y1="4.00526" x2="44.5081" y2="103.196" gradientUnits="userSpaceOnUse">
<stop stop-color="#01A4CF"/>
<stop offset="0.631373" stop-color="#0171AA"/>
<stop offset="1" stop-color="#003E85"/>
</linearGradient>
<linearGradient id="paint1_linear_112_292" x1="43.5544" y1="28.4027" x2="63.0698" y2="81.1896" gradientUnits="userSpaceOnUse">
<stop stop-color="#003E85"/>
<stop offset="1" stop-color="#04C0E6"/>
</linearGradient>
<linearGradient id="paint2_linear_112_292" x1="71.6838" y1="59.1807" x2="74.8359" y2="90.2534" gradientUnits="userSpaceOnUse">
<stop stop-color="#004389"/>
<stop offset="0.470588" stop-color="#0081B6"/>
<stop offset="1" stop-color="#01BFE3"/>
</linearGradient>
<linearGradient id="paint3_linear_112_292" x1="54.1295" y1="73.9455" x2="54.8371" y2="39.7915" gradientUnits="userSpaceOnUse">
<stop stop-color="#01B0D8"/>
<stop offset="0.639216" stop-color="#0190C1"/>
<stop offset="1" stop-color="#006FA9"/>
</linearGradient>
<linearGradient id="paint4_linear_112_292" x1="71.6112" y1="85.6893" x2="73.7968" y2="63.1448" gradientUnits="userSpaceOnUse">
<stop stop-color="#01B0D8"/>
<stop offset="1" stop-color="#00468B"/>
</linearGradient>
</defs>
</svg>
