<svg width="54" height="54" viewBox="0 0 54 54" fill="none" xmlns="http://www.w3.org/2000/svg">
<path d="M7.70579 5.79421C7.58027 5.66869 7.43126 5.56912 7.26727 5.50119C7.10327 5.43326 6.9275 5.3983 6.74999 5.3983C6.57248 5.3983 6.39671 5.43326 6.23271 5.50119C6.06872 5.56912 5.91971 5.66869 5.79419 5.79421C5.66867 5.91972 5.56911 6.06873 5.50118 6.23273C5.43325 6.39673 5.39828 6.5725 5.39828 6.75001C5.39828 6.92751 5.43325 7.10328 5.50118 7.26728C5.56911 7.43128 5.66867 7.58029 5.79419 7.70581L8.92619 10.8351C7.95123 10.9623 7.05583 11.4398 6.407 12.1785C5.75818 12.9172 5.40025 13.8668 5.39999 14.85V33.75C5.39999 34.8241 5.82669 35.8543 6.58621 36.6138C7.34573 37.3733 8.37586 37.8 9.44999 37.8H35.8911L38.5911 40.5H11.0295C11.3088 41.29 11.8262 41.9739 12.5105 42.4574C13.1947 42.941 14.0121 43.2004 14.85 43.2H39.15C39.8142 43.2 40.4649 43.1325 41.0913 43.0002L46.2942 48.2058C46.5477 48.4593 46.8915 48.6017 47.25 48.6017C47.6085 48.6017 47.9523 48.4593 48.2058 48.2058C48.4593 47.9523 48.6017 47.6085 48.6017 47.25C48.6017 46.8915 48.4593 46.5477 48.2058 46.2942L7.70579 5.79421ZM32.4 34.3089V35.1H16.2V32.4C16.2 30.9678 15.6311 29.5943 14.6184 28.5816C13.6057 27.5689 12.2322 27 10.8 27H8.09999V21.6H10.8C11.9437 21.6005 13.0581 21.2379 13.9825 20.5644C14.9068 19.8909 15.5935 18.9413 15.9435 17.8524L19.6479 21.5568C19.0369 22.5884 18.7867 23.7941 18.9366 24.9836C19.0865 26.1732 19.628 27.2791 20.4758 28.1269C21.3236 28.9747 22.4295 29.5162 23.6191 29.6661C24.8086 29.816 26.0143 29.5658 27.0459 28.9548L32.4 34.3089ZM11.5911 13.5L13.5 15.4089V16.2C13.5 16.9161 13.2155 17.6028 12.7092 18.1092C12.2028 18.6155 11.5161 18.9 10.8 18.9H8.09999V14.85C8.09999 14.492 8.24222 14.1486 8.4954 13.8954C8.74857 13.6422 9.09195 13.5 9.44999 13.5H11.5911ZM21.6891 23.6007L25.002 26.9082C24.5442 27.0302 24.0623 27.0297 23.6048 26.9068C23.1472 26.7838 22.73 26.5428 22.395 26.2077C22.0599 25.8727 21.8189 25.4555 21.6959 24.9979C21.573 24.5404 21.5725 24.0585 21.6945 23.6007H21.6891ZM9.44999 35.1C9.09195 35.1 8.74857 34.9578 8.4954 34.7046C8.24222 34.4514 8.09999 34.108 8.09999 33.75V29.7H10.8C11.5161 29.7 12.2028 29.9845 12.7092 30.4908C13.2155 30.9972 13.5 31.6839 13.5 32.4V35.1H9.44999ZM37.8 27C36.3879 27 35.1054 27.54 34.1442 28.4256L36.0558 30.3399C36.5427 29.9262 37.161 29.6993 37.8 29.7H40.5V33.75C40.5001 34.0308 40.4123 34.3046 40.2489 34.533L42.1659 36.45C42.8085 35.7345 43.2 34.7868 43.2 33.75V14.85C43.2 13.7759 42.7733 12.7457 42.0138 11.9862C41.2542 11.2267 40.2241 10.8 39.15 10.8H16.5159L19.2159 13.5H32.4V16.2C32.4 17.6322 32.9689 19.0057 33.9816 20.0184C34.9943 21.0311 36.3678 21.6 37.8 21.6H40.5V27H37.8ZM39.15 13.5C39.508 13.5 39.8514 13.6422 40.1046 13.8954C40.3578 14.1486 40.5 14.492 40.5 14.85V18.9H37.8C37.0839 18.9 36.3971 18.6155 35.8908 18.1092C35.3845 17.6028 35.1 16.9161 35.1 16.2V13.5H39.15ZM44.0802 38.3616L45.9891 40.2732C47.6091 38.5749 48.6 36.2772 48.6 33.75V20.25C48.6004 19.4121 48.341 18.5947 47.8574 17.9105C47.3738 17.2262 46.6899 16.7088 45.9 16.4295V33.75C45.9 35.532 45.2088 37.1547 44.0802 38.3616Z" fill="#FD9900"/>
</svg>
