<svg width="32" height="32" viewBox="0 0 32 32" fill="none" xmlns="http://www.w3.org/2000/svg">
<path fill-rule="evenodd" clip-rule="evenodd" d="M0 16C0 11.7565 1.68571 7.68687 4.68629 4.68629C7.68687 1.68571 11.7565 0 16 0C20.2435 0 24.3131 1.68571 27.3137 4.68629C30.3143 7.68687 32 11.7565 32 16C32 20.2435 30.3143 24.3131 27.3137 27.3137C24.3131 30.3143 20.2435 32 16 32C11.7565 32 7.68687 30.3143 4.68629 27.3137C1.68571 24.3131 0 20.2435 0 16ZM16 2.29503C12.3652 2.29503 8.8793 3.73894 6.30912 6.30912C3.73894 8.8793 2.29503 12.3652 2.29503 16C2.29503 19.6348 3.73894 23.1207 6.30912 25.6909C8.8793 28.2611 12.3652 29.705 16 29.705C19.6348 29.705 23.1207 28.2611 25.6909 25.6909C28.2611 23.1207 29.705 19.6348 29.705 16C29.705 12.3652 28.2611 8.8793 25.6909 6.30912C23.1207 3.73894 19.6348 2.29503 16 2.29503ZM21.6868 10.3156C21.9133 10.5421 22.0405 10.8493 22.0405 11.1696C22.0405 11.4899 21.9133 11.797 21.6868 12.0236L17.708 16L21.6868 19.9764C21.9137 20.2033 22.0411 20.5109 22.0411 20.8316C22.0411 21.1524 21.9137 21.46 21.6868 21.6868C21.46 21.9137 21.1524 22.0411 20.8316 22.0411C20.5109 22.0411 20.2033 21.9137 19.9764 21.6868L16 17.708L12.0236 21.6868C11.9112 21.7992 11.7779 21.8882 11.6312 21.949C11.4844 22.0098 11.3272 22.0411 11.1684 22.0411C11.0095 22.0411 10.8523 22.0098 10.7055 21.949C10.5588 21.8882 10.4255 21.7992 10.3132 21.6868C10.2008 21.5745 10.1118 21.4412 10.051 21.2945C9.9902 21.1477 9.95891 20.9905 9.95891 20.8316C9.95891 20.6728 9.9902 20.5156 10.051 20.3688C10.1118 20.2221 10.2008 20.0888 10.3132 19.9764L14.292 16L10.3132 12.0236C10.0863 11.7967 9.95891 11.4891 9.95891 11.1684C9.95891 10.8476 10.0863 10.54 10.3132 10.3132C10.54 10.0863 10.8476 9.95891 11.1684 9.95891C11.4891 9.95891 11.7967 10.0863 12.0236 10.3132L16 14.292L19.9764 10.3132C20.0887 10.2007 20.2219 10.1114 20.3687 10.0505C20.5154 9.98963 20.6728 9.95828 20.8316 9.95828C20.9905 9.95828 21.1479 9.98963 21.2946 10.0505C21.4413 10.1114 21.5746 10.2031 21.6868 10.3156Z" fill="#F8F8F8"/>
</svg>
