<svg width="34" height="32" viewBox="0 0 34 32" fill="none" xmlns="http://www.w3.org/2000/svg">
<path fill-rule="evenodd" clip-rule="evenodd" d="M10.8333 1.33325C6.41506 1.33325 2.83334 4.91498 2.83334 9.33326V18.6666C2.83334 22.5281 5.56922 25.7506 9.20834 26.5014V31.3333H10.625L15.5833 26.6666H23.1667C27.5849 26.6666 31.1667 23.0849 31.1667 18.6666V9.33325C31.1667 4.91497 27.5849 1.33325 23.1667 1.33325H10.8333Z" fill="#7927BA"/>
<path d="M16.1792 0C13.5405 0.0373341 7.87148 0.458676 4.70422 3.2894C2.35172 5.58278 1.5219 8.93351 1.43564 13.0896C1.34937 17.2443 1.23708 25.0352 8.94914 27.1472H8.95325L8.94777 30.3686C8.94777 30.3686 8.89711 31.6713 9.78306 31.938C10.847 32.2606 11.4728 31.2713 12.4943 30.2019C13.0516 29.6153 13.8253 28.7566 14.4073 28.0952C19.6792 28.5299 23.7351 27.5405 24.198 27.3952C25.2606 27.0592 31.2856 26.3072 32.2661 18.519C33.2794 10.4922 31.7731 5.41211 29.0618 3.12406C28.2457 2.39071 24.9456 0.0573345 17.5937 0.0266672C17.5937 0.0266672 17.0528 -0.0066668 16.1737 0.00400008L16.1792 0ZM16.2586 2.25738C17.0049 2.25204 17.4636 2.28005 17.4636 2.28005C23.6831 2.30671 26.6614 4.13075 27.3529 4.74143C29.6465 6.6548 30.8173 11.2322 29.9628 17.9377V17.9404C29.1358 24.4445 24.2473 24.8525 23.3463 25.1338C22.9628 25.2538 19.3999 26.1165 14.9208 25.8325C14.9208 25.8325 11.5851 29.7526 10.543 30.7713C10.3787 30.9313 10.187 30.9939 10.061 30.9633C9.88302 30.9193 9.83373 30.7126 9.83509 30.4113L9.86248 25.0538C3.34174 23.2938 3.72104 16.6643 3.79636 13.1936C3.8703 9.72153 4.5399 6.87614 6.52954 4.96277C9.21342 2.59872 14.0252 2.27205 16.2655 2.25604L16.2586 2.25738ZM16.779 5.72678C16.6728 5.73199 16.5727 5.77656 16.4992 5.85133C16.4257 5.92611 16.3844 6.02543 16.3837 6.12894C16.383 6.23244 16.4229 6.33229 16.4954 6.408C16.5679 6.48371 16.6674 6.52955 16.7735 6.53613C18.9973 6.54946 20.8075 7.25214 22.2891 8.65884C23.7584 10.0535 24.5074 11.9496 24.5252 14.4376C24.528 14.6603 24.717 14.8376 24.9456 14.8376C25.0551 14.8362 25.1596 14.7929 25.2364 14.717C25.3133 14.6412 25.3564 14.5389 25.3564 14.4323C25.3373 11.7869 24.5102 9.63752 22.8697 8.08016C21.2402 6.53346 19.1821 5.74278 16.779 5.72678ZM11.3564 6.65347C11.0653 6.61421 10.769 6.66902 10.5129 6.80947L10.4992 6.81214C9.91041 7.14148 9.38185 7.56148 8.92997 8.05483C8.92723 8.06016 8.92175 8.06016 8.91901 8.06549C8.5534 8.49617 8.3439 8.91618 8.28912 9.32952C8.2784 9.39116 8.27518 9.45382 8.27954 9.51619C8.27954 9.69753 8.30966 9.8762 8.36854 10.0495L8.38635 10.0629C8.5712 10.7029 9.03404 11.7642 10.0364 13.5349C10.6115 14.559 11.2729 15.535 12.0164 16.4497C12.3862 16.9083 12.7833 17.347 13.2077 17.7617L13.3885 17.9377C13.813 18.3484 14.2649 18.7377 14.7359 19.0977C15.6761 19.8219 16.6774 20.4673 17.7293 21.0271C19.5477 22.0044 20.6405 22.4538 21.295 22.6351L21.3087 22.6538C21.5469 22.7296 21.7991 22.7546 22.0481 22.7271C22.4726 22.6791 22.9067 22.4738 23.3463 22.1138C23.3517 22.1138 23.3504 22.1111 23.3572 22.1071C23.8639 21.6671 24.2925 21.1471 24.6307 20.5764L24.6348 20.5631C24.9429 19.9871 24.8402 19.4404 24.3883 19.0697C24.3828 19.0697 23.4325 18.2964 22.9683 17.963C22.4754 17.623 21.9687 17.307 21.4443 17.0163C20.7459 16.6363 20.0311 16.875 19.7353 17.2483L19.1232 18.0004C18.8083 18.3777 18.2236 18.3284 18.2236 18.3284C13.9513 17.267 12.8079 13.0549 12.8079 13.0549C12.8079 13.0549 12.7572 12.4869 13.1475 12.1802L13.9184 11.5829C14.2977 11.2962 14.5428 10.6002 14.1512 9.91886C13.8538 9.40724 13.5293 8.911 13.179 8.43217C12.8113 7.96359 12.4323 7.50345 12.0425 7.05214C11.8707 6.84275 11.6262 6.70188 11.355 6.65613L11.3564 6.65347ZM17.5047 7.82682C17.3947 7.82364 17.2878 7.86315 17.2077 7.93667C17.1276 8.01018 17.0807 8.11168 17.0775 8.21883C17.0742 8.32598 17.1148 8.43001 17.1903 8.50802C17.2658 8.58604 17.37 8.63166 17.4801 8.63484C19.0685 8.74817 20.242 9.25618 21.1019 10.1682C21.9646 11.0856 22.3754 12.2002 22.3425 13.5949C22.3485 13.6975 22.394 13.7941 22.4699 13.8654C22.5458 13.9367 22.6465 13.9775 22.7519 13.9797C22.8574 13.9819 22.9598 13.9453 23.0388 13.8772C23.1177 13.8091 23.1674 13.7145 23.1778 13.6123C23.2121 12.0456 22.7205 10.6882 21.7168 9.62019C20.7035 8.54017 19.2835 7.94949 17.5403 7.82549H17.5074L17.5047 7.82682ZM18.1387 10.0002C18.0333 10.0017 17.9323 10.042 17.8561 10.113C17.7799 10.184 17.7341 10.2804 17.7279 10.3829C17.7169 10.6055 17.8922 10.7962 18.1223 10.8095C18.8384 10.8469 19.3204 11.0429 19.6463 11.3722C19.975 11.6989 20.1776 12.1989 20.216 12.9243C20.2301 13.0248 20.2824 13.1165 20.3626 13.1813C20.4427 13.2461 20.545 13.2793 20.649 13.2743C20.7531 13.2692 20.8515 13.2264 20.9247 13.1542C20.9979 13.082 21.0406 12.9857 21.0444 12.8843C21.0033 12.0256 20.75 11.3136 20.2502 10.8082C19.7477 10.3042 19.0274 10.0429 18.1688 9.99887H18.1442L18.1387 10.0002Z" fill="#7927BA"/>
<path d="M16.4992 5.85136C16.5727 5.77658 16.6728 5.73202 16.779 5.72681C19.1821 5.74281 21.2402 6.53349 22.8697 8.08019C24.5102 9.63755 25.3373 11.7869 25.3564 14.4323C25.3564 14.5389 25.3133 14.6412 25.2364 14.7171C25.1596 14.7929 25.0551 14.8363 24.9456 14.8377C24.717 14.8377 24.528 14.6603 24.5252 14.4376C24.5074 11.9496 23.7584 10.0536 22.2891 8.65886C20.8075 7.25217 18.9973 6.54949 16.7735 6.53616C16.6674 6.52958 16.5679 6.48374 16.4954 6.40802C16.4229 6.33231 16.383 6.23247 16.3837 6.12896C16.3844 6.02546 16.4257 5.92614 16.4992 5.85136Z" fill="#7927BA"/>
<path d="M10.5129 6.80949C10.769 6.66904 11.0653 6.61424 11.3564 6.65349L11.355 6.65616C11.6262 6.7019 11.8707 6.84278 12.0425 7.05217C12.4323 7.50348 12.8113 7.96361 13.179 8.43219C13.5293 8.91103 13.8538 9.40726 14.1512 9.91889C14.5428 10.6002 14.2977 11.2963 13.9184 11.5829L13.1475 12.1803C12.7572 12.4869 12.8079 13.055 12.8079 13.055C12.8079 13.055 13.9513 17.267 18.2236 18.3284C18.2236 18.3284 18.8083 18.3777 19.1232 18.0004L19.7353 17.2484C20.0311 16.875 20.7459 16.6364 21.4443 17.0164C21.9687 17.307 22.4754 17.623 22.9683 17.9631C23.4325 18.2964 24.3828 19.0697 24.3883 19.0697C24.8402 19.4404 24.9429 19.9871 24.6348 20.5631L24.6307 20.5764C24.2925 21.1471 23.8639 21.6671 23.3572 22.1071C23.3504 22.1111 23.3517 22.1138 23.3463 22.1138C22.9067 22.4738 22.4726 22.6791 22.0481 22.7271C21.7991 22.7547 21.5469 22.7297 21.3087 22.6538L21.295 22.6351C20.6405 22.4538 19.5477 22.0045 17.7293 21.0271C16.6774 20.4673 15.6761 19.8219 14.7359 19.0977C14.2649 18.7377 13.813 18.3484 13.3885 17.9377L13.2077 17.7617C12.7833 17.347 12.3862 16.9084 12.0164 16.4497C11.2729 15.535 10.6115 14.559 10.0364 13.535C9.03404 11.7643 8.5712 10.7029 8.38635 10.0629L8.36854 10.0496C8.30966 9.87622 8.27954 9.69755 8.27954 9.51622C8.27518 9.45384 8.2784 9.39119 8.28912 9.32955C8.3439 8.9162 8.5534 8.49619 8.91901 8.06552C8.92175 8.06019 8.92723 8.06019 8.92997 8.05485C9.38185 7.56151 9.91041 7.1415 10.4992 6.81216L10.5129 6.80949Z" fill="#7927BA"/>
<path d="M17.2077 7.93669C17.2878 7.86318 17.3947 7.82367 17.5047 7.82685L17.5074 7.82552H17.5403C19.2835 7.94952 20.7035 8.5402 21.7168 9.62022C22.7205 10.6882 23.2121 12.0456 23.1778 13.6123C23.1674 13.7145 23.1177 13.8091 23.0388 13.8772C22.9598 13.9453 22.8574 13.9819 22.7519 13.9798C22.6465 13.9776 22.5458 13.9367 22.4699 13.8654C22.394 13.7941 22.3485 13.6975 22.3425 13.595C22.3754 12.2003 21.9646 11.0856 21.1019 10.1682C20.242 9.25621 19.0685 8.7482 17.4801 8.63486C17.37 8.63168 17.2658 8.58606 17.1903 8.50805C17.1148 8.43003 17.0742 8.32601 17.0775 8.21886C17.0807 8.11171 17.1276 8.01021 17.2077 7.93669Z" fill="#7927BA"/>
<path d="M17.8561 10.113C17.9323 10.042 18.0333 10.0017 18.1387 10.0002L18.1442 9.99889H18.1688C19.0274 10.0429 19.7477 10.3042 20.2502 10.8082C20.75 11.3136 21.0033 12.0256 21.0444 12.8843C21.0406 12.9857 20.9979 13.082 20.9247 13.1542C20.8515 13.2264 20.7531 13.2693 20.649 13.2743C20.545 13.2793 20.4427 13.2461 20.3626 13.1813C20.2824 13.1165 20.2301 13.0248 20.216 12.9243C20.1776 12.1989 19.975 11.6989 19.6463 11.3723C19.3204 11.0429 18.8384 10.8469 18.1223 10.8096C17.8922 10.7962 17.7169 10.6056 17.7279 10.3829C17.7341 10.2804 17.7799 10.184 17.8561 10.113Z" fill="#7927BA"/>
<path d="M16.2215 6.12455C16.295 6.04978 16.3951 6.00521 16.5013 6C18.9045 6.016 20.9626 6.80668 22.5921 8.35338C24.2325 9.91074 25.0596 12.0601 25.0788 14.7055C25.0788 14.8121 25.0357 14.9144 24.9588 14.9903C24.8819 15.0661 24.7774 15.1094 24.668 15.1108C24.4393 15.1108 24.2503 14.9335 24.2476 14.7108C24.2298 12.2228 23.4808 10.3268 22.0115 8.93206C20.5299 7.52536 18.7196 6.82268 16.4958 6.80935C16.3897 6.80277 16.2903 6.75693 16.2178 6.68122C16.1453 6.60551 16.1053 6.50566 16.106 6.40216C16.1067 6.29865 16.148 6.19933 16.2215 6.12455Z" fill="white"/>
<path d="M10.2353 7.08269C10.4913 6.94224 10.7876 6.88743 11.0788 6.92668L11.0774 6.92935C11.3485 6.9751 11.5931 7.11597 11.7648 7.32536C12.1546 7.77667 12.5336 8.23681 12.9013 8.70539C13.2516 9.18422 13.5761 9.68046 13.8736 10.1921C14.2652 10.8734 14.0201 11.5694 13.6408 11.8561L12.8698 12.4535C12.4796 12.7601 12.5302 13.3281 12.5302 13.3281C12.5302 13.3281 13.6736 17.5402 17.9459 18.6016C17.9459 18.6016 18.5306 18.6509 18.8456 18.2736L19.4577 17.5216C19.7535 17.1482 20.4682 16.9096 21.1666 17.2896C21.6911 17.5802 22.1977 17.8962 22.6907 18.2362C23.1549 18.5696 24.1052 19.3429 24.1107 19.3429C24.5625 19.7136 24.6652 20.2603 24.3571 20.8363L24.353 20.8496C24.0148 21.4203 23.5862 21.9403 23.0796 22.3803C23.0727 22.3843 23.0741 22.387 23.0686 22.387C22.629 22.747 22.195 22.9523 21.7705 23.0003C21.5214 23.0279 21.2693 23.0028 21.031 22.927L21.0173 22.9083C20.3628 22.727 19.2701 22.2777 17.4516 21.3003C16.3997 20.7405 15.3984 20.0951 14.4583 19.3709C13.9872 19.0109 13.5353 18.6216 13.1108 18.2109L12.9301 18.0349C12.5056 17.6202 12.1085 17.1816 11.7388 16.7229C10.9952 15.8082 10.3338 14.8322 9.75873 13.8082C8.75638 12.0375 8.29355 10.9761 8.10869 10.3361L8.09089 10.3228C8.03201 10.1494 8.00188 9.97075 8.00188 9.78941C7.99752 9.72704 8.00074 9.66438 8.01147 9.60274C8.06624 9.1894 8.27575 8.76939 8.64136 8.33871C8.6441 8.33338 8.64957 8.33338 8.65231 8.32805C9.10419 7.8347 9.63275 7.4147 10.2216 7.08536L10.2353 7.08269Z" fill="white"/>
<path d="M16.9301 8.20989C17.0102 8.13637 17.117 8.09686 17.227 8.10004L17.2298 8.09871H17.2626C19.0058 8.22271 20.4258 8.81339 21.4391 9.89341C22.4428 10.9614 22.9344 12.3188 22.9002 13.8855C22.8897 13.9877 22.8401 14.0823 22.7611 14.1504C22.6822 14.2185 22.5797 14.2551 22.4743 14.2529C22.3688 14.2508 22.2681 14.2099 22.1922 14.1386C22.1163 14.0673 22.0709 13.9707 22.0649 13.8682C22.0977 12.4735 21.6869 11.3588 20.8243 10.4414C19.9643 9.5294 18.7908 9.02139 17.2024 8.90806C17.0924 8.90488 16.9881 8.85926 16.9126 8.78124C16.8371 8.70322 16.7965 8.5992 16.7998 8.49205C16.8031 8.3849 16.8499 8.2834 16.9301 8.20989Z" fill="white"/>
<path d="M17.5785 10.3862C17.6547 10.3152 17.7556 10.2749 17.861 10.2734L17.8665 10.2721H17.8912C18.7497 10.3161 19.47 10.5774 19.9725 11.0814C20.4724 11.5868 20.7257 12.2988 20.7668 13.1575C20.7629 13.2589 20.7202 13.3552 20.647 13.4274C20.5738 13.4996 20.4754 13.5424 20.3714 13.5475C20.2673 13.5525 20.1651 13.5193 20.0849 13.4545C20.0047 13.3897 19.9524 13.298 19.9383 13.1975C19.9 12.4721 19.6973 11.9721 19.3687 11.6454C19.0428 11.3161 18.5608 11.1201 17.8446 11.0828C17.6146 11.0694 17.4393 10.8788 17.4502 10.6561C17.4565 10.5536 17.5023 10.4572 17.5785 10.3862Z" fill="white"/>
</svg>
