<svg width="50" height="50" viewBox="0 0 50 50" fill="none" xmlns="http://www.w3.org/2000/svg">
<path d="M29.6297 6.54376C29.6936 6.46292 29.7729 6.39553 29.8629 6.34546C29.953 6.29539 30.0521 6.26363 30.1545 6.25201C30.2568 6.24039 30.3605 6.24914 30.4595 6.27776C30.5585 6.30638 30.6509 6.3543 30.7312 6.41876L32.4187 7.77188L26.2484 15.625H30.2234L34.8609 9.72501L38.7734 12.8594C38.8554 12.925 38.9233 13.0065 38.9731 13.099C39.0229 13.1915 39.0535 13.293 39.0631 13.3976C39.0727 13.5022 39.0612 13.6076 39.0291 13.7077C38.9971 13.8077 38.9452 13.9002 38.8766 13.9797L37.4578 15.625H41.5422C42.0801 14.8121 42.2947 13.8275 42.1438 12.8645C41.9929 11.9015 41.4874 11.0297 40.7266 10.4203L32.6844 3.97969C32.2826 3.65803 31.8213 3.41893 31.3268 3.27613C30.8324 3.13333 30.3146 3.08964 29.8032 3.14757C29.2918 3.2055 28.797 3.36392 28.347 3.61371C27.897 3.8635 27.5009 4.19975 27.1812 4.60313L18.4516 15.625H22.4375L29.6297 6.54376ZM32.8125 29.6875C32.3981 29.6875 32.0007 29.8521 31.7076 30.1452C31.4146 30.4382 31.25 30.8356 31.25 31.25C31.25 31.6644 31.4146 32.0618 31.7076 32.3549C32.0007 32.6479 32.3981 32.8125 32.8125 32.8125H37.5C37.9144 32.8125 38.3118 32.6479 38.6049 32.3549C38.8979 32.0618 39.0625 31.6644 39.0625 31.25C39.0625 30.8356 38.8979 30.4382 38.6049 30.1452C38.3118 29.8521 37.9144 29.6875 37.5 29.6875H32.8125ZM9.375 10.9375C8.1318 10.9375 6.93951 11.4314 6.06044 12.3104C5.18136 13.1895 4.6875 14.3818 4.6875 15.625V38.2813C4.6875 40.1461 5.42829 41.9345 6.74691 43.2531C8.06552 44.5717 9.85395 45.3125 11.7188 45.3125H38.2812C40.1461 45.3125 41.9345 44.5717 43.2531 43.2531C44.5717 41.9345 45.3125 40.1461 45.3125 38.2813V24.2188C45.3125 22.354 44.5717 20.5655 43.2531 19.2469C41.9345 17.9283 40.1461 17.1875 38.2812 17.1875H9.375C8.9606 17.1875 8.56317 17.0229 8.27015 16.7299C7.97712 16.4368 7.8125 16.0394 7.8125 15.625C7.8125 15.2106 7.97712 14.8132 8.27015 14.5202C8.56317 14.2271 8.9606 14.0625 9.375 14.0625H16.5312L19.025 10.9375H9.375ZM7.8125 38.2813V20.0469C8.30156 20.2188 8.82812 20.3125 9.375 20.3125H38.2812C39.3173 20.3125 40.3108 20.7241 41.0434 21.4566C41.776 22.1892 42.1875 23.1828 42.1875 24.2188V38.2813C42.1875 39.3173 41.776 40.3108 41.0434 41.0434C40.3108 41.776 39.3173 42.1875 38.2812 42.1875H11.7188C10.6827 42.1875 9.68918 41.776 8.95661 41.0434C8.22405 40.3108 7.8125 39.3173 7.8125 38.2813Z" fill="#FD9900"/>
</svg>
