<svg width="215" height="205" viewBox="0 0 215 205" fill="none" xmlns="http://www.w3.org/2000/svg">
<path d="M192.629 111.852C187.038 162.055 141.809 198.219 91.6069 192.627C41.4057 187.038 5.24118 141.809 10.8316 91.6072C16.4223 41.4058 61.6511 5.24156 111.853 10.8318C162.054 16.4219 198.219 61.65 192.629 111.852ZM93.1882 178.432C135.549 183.148 173.714 152.633 178.431 110.271C183.149 67.9112 152.633 29.7456 110.272 25.029C67.9109 20.3104 29.7463 50.827 25.0288 93.1887C20.3115 135.549 50.8276 173.713 93.1882 178.432Z" fill="#F8AE4A"/>
<path d="M109.176 35.7905L112.267 44.5628L121.246 46.9901L113.857 52.6407L114.324 61.9296L106.667 56.6489L97.976 59.9629L100.632 51.0496L94.7952 43.8079L104.093 43.5795L109.176 35.7905Z" fill="#E3961A"/>
<path d="M76.8123 40.3198L78.6562 45.5544L84.013 47.0022L79.6052 50.3724L79.8836 55.9142L75.3153 52.7635L70.13 54.7408L71.7148 49.4231L68.2325 45.1037L73.7807 44.9678L76.8123 40.3198Z" fill="#E3961A"/>
<path d="M141.78 48.136L143.624 53.3706L148.981 54.8184L144.573 58.1886L144.851 63.7305L140.283 60.5797L135.098 62.557L136.682 57.2393L133.2 52.9199L138.748 52.784L141.78 48.136Z" fill="#E3961A"/>
<path d="M54.4255 127.15L52.6737 141.711L48.8816 141.255L49.6169 135.143L48.5124 135.011L47.7771 141.122L43.9848 140.666L45.7366 126.105L49.5289 126.561L48.9022 131.771L50.0067 131.904L50.6335 126.694L54.4255 127.15ZM62.4888 128.12L62.9029 142.942L59.0341 142.477L59.143 139.838L57.7777 139.674L57.2576 142.263L53.3397 141.792L57.0119 127.461L62.4888 128.12ZM59.3518 137.248C59.3693 135.576 59.4248 133.51 59.5159 131.046C58.8049 133.799 58.3229 135.814 58.0662 137.094L59.3518 137.248ZM71.9847 144.035L68.8183 143.654L69.6152 137.029L66.8487 143.417L63.5533 143.02L65.3052 128.459L68.4716 128.84L67.681 135.412L70.5884 129.094L73.7366 129.473L71.9847 144.035ZM70.935 125.905L72.4627 126.089C72.3273 126.904 72.0122 127.532 71.5102 127.979C71.0082 128.426 70.3677 128.601 69.5824 128.507C68.7907 128.411 68.2075 128.086 67.8322 127.53C67.4568 126.978 67.3026 126.293 67.3636 125.476L68.8913 125.659C68.8661 126.491 69.1542 126.942 69.7618 127.015C70.3723 127.089 70.7653 126.719 70.935 125.905ZM84.0358 148.024L81.4218 147.71L81.723 145.206L75.611 144.471L75.3098 146.975L72.6957 146.66L73.3624 141.119L74.1357 141.212C74.6872 140.068 75.2134 138.54 75.7082 136.626C76.203 134.713 76.5907 132.602 76.8679 130.298L76.921 129.856L85.3156 130.866L83.9314 142.372L84.7047 142.465L84.0358 148.024ZM80.139 141.916L81.1777 133.282L80.0549 133.147L80.042 133.254C79.7064 136.043 79.064 138.848 78.1143 141.672L80.139 141.916ZM87.2639 131.101L93.5782 131.86L93.2283 134.769L90.7062 134.466L90.3718 137.245L92.7281 137.529L92.3959 140.29L90.0396 140.007L89.6543 143.21L92.4341 143.544L92.0841 146.453L85.512 145.662L87.2639 131.101ZM106.584 133.425L104.832 147.986L101.518 147.588L102.692 137.756L100.193 147.428L97.8736 147.149L97.6398 137.373L96.4744 146.981L93.1608 146.582L94.9126 132.021L99.8062 132.61C99.8385 133.507 99.8642 134.562 99.8841 135.766L99.9762 139.527L101.657 132.832L106.584 133.425ZM111.355 133.999L115.123 134.452C116.313 134.595 117.204 134.796 117.795 135.057C118.387 135.315 118.835 135.752 119.145 136.362C119.454 136.975 119.531 137.908 119.38 139.166C119.278 140.016 119.075 140.592 118.767 140.895C118.46 141.2 117.901 141.391 117.094 141.478C117.948 141.783 118.504 142.183 118.761 142.677C119.019 143.176 119.091 143.897 118.977 144.848L118.814 146.198C118.696 147.183 118.495 147.897 118.213 148.345C117.933 148.79 117.538 149.073 117.026 149.189C116.514 149.304 115.497 149.269 113.975 149.086L109.603 148.56L111.355 133.999ZM114.848 136.94L114.458 140.18C114.619 140.193 114.742 140.205 114.831 140.216C115.193 140.259 115.437 140.196 115.557 140.026C115.68 139.854 115.793 139.335 115.896 138.473C115.951 138.016 115.95 137.692 115.889 137.498C115.828 137.307 115.735 137.178 115.609 137.113C115.482 137.051 115.228 136.992 114.848 136.94ZM114.186 142.445L113.694 146.531C114.218 146.576 114.563 146.533 114.725 146.4C114.887 146.267 115.002 145.904 115.073 145.315L115.237 143.953C115.312 143.327 115.293 142.942 115.181 142.792C115.068 142.644 114.736 142.53 114.186 142.445ZM129.127 144.796C128.95 146.26 128.792 147.29 128.649 147.888C128.508 148.491 128.226 149.02 127.804 149.48C127.381 149.94 126.844 150.267 126.195 150.463C125.545 150.659 124.811 150.707 123.992 150.609C123.213 150.515 122.532 150.302 121.943 149.973C121.353 149.644 120.899 149.204 120.586 148.649C120.27 148.094 120.113 147.512 120.111 146.905C120.113 146.295 120.202 145.242 120.383 143.744L120.682 141.253C120.858 139.789 121.016 138.759 121.16 138.16C121.301 137.558 121.582 137.028 122.005 136.569C122.428 136.109 122.965 135.782 123.614 135.586C124.264 135.39 124.998 135.341 125.817 135.44C126.596 135.534 127.277 135.746 127.866 136.076C128.455 136.405 128.91 136.846 129.223 137.4C129.539 137.955 129.696 138.537 129.698 139.144C129.696 139.754 129.606 140.808 129.426 142.305L129.127 144.796ZM125.91 139.557C125.991 138.882 126.006 138.445 125.956 138.246C125.904 138.049 125.766 137.936 125.538 137.909C125.345 137.886 125.189 137.945 125.066 138.086C124.946 138.224 124.84 138.668 124.75 139.417L123.932 146.213C123.831 147.057 123.802 147.582 123.846 147.787C123.889 147.995 124.034 148.111 124.279 148.141C124.531 148.171 124.707 148.077 124.805 147.859C124.903 147.64 125.002 147.101 125.105 146.245L125.91 139.557ZM140.349 154.799L137.735 154.485L138.036 151.981L131.924 151.246L131.623 153.749L129.009 153.435L129.675 147.894L130.449 147.987C131 146.842 131.526 145.315 132.021 143.401C132.516 141.488 132.904 139.377 133.181 137.073L133.234 136.631L141.628 137.641L140.244 149.147L141.018 149.24L140.349 154.799ZM136.452 148.69L137.491 140.057L136.368 139.922L136.355 140.029C136.019 142.818 135.377 145.623 134.427 148.447L136.452 148.69ZM151.066 138.776L148.872 148.295C148.526 149.798 148.223 150.847 147.965 151.439C147.704 152.03 147.292 152.425 146.73 152.626C146.164 152.825 145.27 152.851 144.052 152.705L141.843 152.439L142.069 150.561L142.296 150.589C142.796 150.649 143.111 150.646 143.238 150.577C143.364 150.512 143.44 150.396 143.46 150.228C143.462 150.215 143.437 149.795 143.391 148.968L142.712 137.771L146.004 138.167L146.102 147.389L147.762 138.379L151.066 138.776Z" fill="#434242"/>
<path d="M47.9019 115.79L55.275 116.677L61.1317 67.9947L55.9852 67.3755C55.0446 68.7435 53.5799 69.7669 51.7249 70.5308C49.7994 71.2874 47.5079 71.5754 44.7691 71.4582L44.15 76.6047L52.4954 77.6087L47.9019 115.79ZM71.2859 119.308C74.8333 119.735 77.8181 118.965 80.2343 117.069C82.649 115.173 84.0971 112.524 84.5237 108.978L87.7199 82.4112C88.1466 78.8637 87.3764 75.8789 85.4803 73.4639C83.5828 71.0475 80.8576 69.6608 77.3101 69.234C73.7636 68.8074 70.786 69.5079 68.3711 71.4056C65.9563 73.302 64.5001 76.0189 64.0733 79.5663L60.8772 106.133C60.4505 109.679 61.229 112.596 63.1251 115.01C65.0212 117.425 67.7394 118.881 71.2859 119.308ZM72.1226 112.354C70.7318 112.186 69.6699 111.636 69.0045 110.708C68.34 109.782 68.0644 108.549 68.2484 107.02L71.4445 80.4531C71.6287 78.9224 72.1888 77.7898 73.0541 77.048C73.9203 76.3059 75.0826 76.0219 76.4734 76.1892C77.8642 76.3565 78.9268 76.9083 79.5926 77.8346C80.2569 78.7605 80.5313 79.9934 80.3471 81.5242L77.151 108.091C76.967 109.62 76.4081 110.752 75.5431 111.495C74.6764 112.238 73.5134 112.521 72.1226 112.354ZM98.767 122.614C102.315 123.041 105.299 122.271 107.715 120.375C110.13 118.479 111.578 115.83 112.005 112.284L115.201 85.7173C115.628 82.1699 114.858 79.1851 112.961 76.7701C111.064 74.3537 108.339 72.967 104.791 72.5402C101.245 72.1136 98.2674 72.8141 95.8522 74.7117C93.4377 76.6082 91.9812 79.3251 91.5544 82.8725L88.3583 109.439C87.9317 112.985 88.7104 115.902 90.6063 118.316C92.5026 120.732 95.2208 122.188 98.767 122.614ZM99.6037 115.66C98.2129 115.492 97.1513 114.942 96.4857 114.014C95.8214 113.088 95.5458 111.855 95.7298 110.326L98.9259 83.7593C99.1101 82.2286 99.6702 81.096 100.535 80.3541C101.402 79.6121 102.564 79.3281 103.954 79.4954C105.345 79.6627 106.408 80.2144 107.074 81.1408C107.738 82.0667 108.013 83.2996 107.829 84.8304L104.632 111.397C104.448 112.927 103.89 114.059 103.024 114.801C102.158 115.544 100.994 115.827 99.6037 115.66ZM124.275 103.035C126.709 103.328 128.602 102.85 130.012 101.679C131.423 100.509 132.283 98.6366 132.585 96.1328L134.049 83.9637C134.35 81.4593 133.958 79.4369 132.865 77.9653C131.773 76.4932 130.048 75.5787 127.613 75.2858C125.18 74.9931 123.288 75.4724 121.877 76.6434C120.466 77.8137 119.606 79.6855 119.304 82.1898L117.84 94.359C117.539 96.8627 117.931 98.8858 119.024 100.357C120.117 101.829 121.842 102.742 124.275 103.035ZM120.143 124.481L125.01 125.066L151.106 78.8192L146.237 78.2334L120.143 124.481ZM124.802 98.6545C123.133 98.4538 122.425 97.3098 122.668 95.2934L124.216 82.4271C124.458 80.4104 125.418 79.4667 127.086 79.6674C128.756 79.8683 129.464 81.0126 129.222 83.0293L127.674 95.8957C127.431 97.912 126.471 98.8554 124.802 98.6545ZM143.635 128.012C146.069 128.305 147.962 127.828 149.373 126.657C150.783 125.486 151.644 123.614 151.945 121.11L153.409 108.939C153.71 106.435 153.319 104.413 152.226 102.941C151.133 101.469 149.408 100.556 146.973 100.263C144.54 99.9704 142.648 100.449 141.237 101.619C139.826 102.79 138.966 104.662 138.665 107.165L137.201 119.336C136.899 121.84 137.291 123.863 138.384 125.335C139.477 126.807 141.202 127.719 143.635 128.012ZM144.162 123.631C142.494 123.43 141.784 122.287 142.026 120.269L143.574 107.404C143.817 105.386 144.778 104.444 146.446 104.645C148.116 104.846 148.825 105.989 148.582 108.007L147.034 120.871C146.791 122.89 145.832 123.831 144.162 123.631Z" fill="#434242" stroke="#454444" stroke-width="1.45739" stroke-miterlimit="10"/>
<path fill-rule="evenodd" clip-rule="evenodd" d="M142.27 185.36L193.691 42.0534C196.57 39.3712 203.131 42.0401 203.822 45.3832L151.874 189.468L143.152 196.362L142.27 185.36Z" fill="#434242"/>
<path d="M142.686 186.437L151.874 189.468L203.222 45.368L194.034 42.3371L142.686 186.437Z" fill="#4B4C4B"/>
<path d="M144.177 185.465L161.886 135.767C162.243 135.976 162.741 136.219 163.434 136.474L146.219 184.784C145.573 185.037 144.894 185.266 144.177 185.465ZM162.035 135.349L195.057 42.6747L196.668 43.2061L163.819 135.393C163.173 135.647 162.752 135.15 162.035 135.349Z" fill="#9E9E9E"/>
<path d="M148.87 183.499L165.409 137.085C166.637 137.406 168.208 137.728 170.208 138.018L165.352 151.644L157.689 172.955C157.464 173.005 155.549 179.601 148.87 183.499ZM165.905 135.692L198.63 43.8536L203.222 45.368L183.925 99.5227L172.809 130.522C172.585 130.571 171.963 133.092 165.905 135.692Z" fill="#212121"/>
<path d="M184.836 96.9647L181.154 107.299L181.084 107.301C180.757 107.291 179.072 115.721 157.725 110.019C154.54 109.172 166.762 118.871 166.762 118.871L169.009 112.566C169.009 112.566 170.729 113.228 173.335 114.065L173.582 114.149L173.587 114.143C180.358 116.298 192.709 119.489 196.923 115.684C202.838 110.339 184.836 96.9647 184.836 96.9647Z" fill="#565656"/>
<path d="M181.084 107.301L184.836 96.9647L181.154 107.299L181.084 107.301Z" fill="#0E0E0E"/>
<path d="M157.738 110.975C157.736 110.974 157.736 110.974 157.736 110.974C157.479 110.68 157.306 110.438 157.231 110.265C157.306 110.438 157.483 110.682 157.738 110.975ZM168.978 112.642L169.008 112.558C168.896 112.135 168.607 112.371 168.556 111.94C168.473 111.935 168.391 111.93 168.308 111.924C179.691 112.69 180.821 107.293 181.084 107.301L181.154 107.299L184.836 96.9648L184.836 96.9663C184.982 97.0745 198.506 107.159 198.095 113.274C198.082 113.355 198.066 113.436 198.048 113.514C198.311 109.967 192.75 104.08 189.257 102.167C188.933 101.991 188.629 101.858 188.344 101.763C185.35 100.776 184.484 104.145 184.056 106.74C183.589 109.58 180.038 111.476 180.038 111.476C176.899 112.753 172.924 112.92 169.266 112.663L169.009 112.566L168.981 112.643C168.978 112.642 168.978 112.642 168.978 112.642Z" fill="#252525"/>
<path d="M168.981 112.643C168.981 112.643 185.937 118.139 192.65 116.789C192.65 116.789 198.021 115.898 198.114 113.038C198.114 113.038 198.528 116.043 195.224 117.09C191.934 118.134 190.212 118.342 180.296 116.141C170.194 113.898 168.981 112.643 168.981 112.643Z" fill="#2D2D2C"/>
<path d="M176.618 113.955C176.42 113.89 176.315 113.855 176.315 113.855C176.315 113.855 176.318 113.856 176.321 113.856C176.586 113.944 185.808 116.952 190.189 113.941C194.636 110.887 189.634 102.696 189.634 102.696C189.634 102.696 193.672 105.523 196.469 109.612C198.779 112.986 196.185 114.885 196.185 114.885C191.062 118.493 178.699 114.642 176.618 113.955Z" fill="#A09FA0"/>
<path d="M193.853 71.66L190.171 81.9945L190.101 81.9958C189.774 81.986 188.089 90.4166 166.742 84.7153C163.556 83.868 175.779 93.5663 175.779 93.5663L178.026 87.2618C178.026 87.2618 179.746 87.9236 182.352 88.7607L182.598 88.8463L182.604 88.8397C189.375 90.9925 201.726 94.184 205.94 90.3798C211.856 85.0336 193.853 71.66 193.853 71.66Z" fill="#565656"/>
<path d="M177.568 86.6299C174.683 86.4561 171.132 85.889 166.742 84.7153C163.556 83.868 175.779 93.5663 175.779 93.5663L178.026 87.2618C177.921 86.845 177.615 87.0542 177.568 86.6299Z" fill="#383838"/>
<path d="M190.101 81.9958L193.853 71.66L190.171 81.9945L190.101 81.9958Z" fill="#0E0E0E"/>
<path d="M178.283 87.3584L178.026 87.2615C177.923 86.8463 177.62 87.0521 177.569 86.6343C188.725 87.3072 189.842 81.9872 190.101 81.9956L190.171 81.9943L193.853 71.6598C193.853 71.6613 193.853 71.6613 193.853 71.6613C193.999 71.7695 207.513 81.8457 207.112 87.9608C207.101 88.0455 207.085 88.1269 207.065 88.2073C207.325 84.661 201.767 78.7753 198.272 76.8658C197.946 76.6869 197.642 76.554 197.358 76.4602C194.366 75.4729 193.501 78.8396 193.073 81.436C192.606 84.2753 189.055 86.1734 189.055 86.1734C185.915 87.4514 181.942 87.6146 178.283 87.3584Z" fill="#252525"/>
<path d="M167.342 86.3033C166.233 85.1773 165.771 84.4573 166.742 84.7152C167.7 84.9715 168.617 85.1977 169.497 85.3988C169.497 85.3988 169.5 85.3997 169.503 85.4007C169.503 85.4007 169.506 85.4008 169.509 85.4018C172.655 86.119 175.318 86.4992 177.569 86.6345C177.62 87.0523 177.923 86.8464 178.026 87.2617L177.998 87.3384C173.105 86.9625 168.847 85.8567 168.03 85.6686C166.6 85.3415 167.338 86.2975 167.342 86.3033Z" fill="#181818"/>
<path d="M177.998 87.3382C177.998 87.3382 194.954 92.8331 201.668 91.4824C201.668 91.4824 207.038 90.591 207.13 87.7355C207.13 87.7355 207.545 90.7384 204.241 91.7862C200.951 92.8301 199.229 93.0369 189.313 90.8362C179.211 88.5928 177.998 87.3382 177.998 87.3382Z" fill="#2D2D2C"/>
<path d="M185.64 88.652C185.44 88.586 185.332 88.5496 185.332 88.5496C185.332 88.5496 185.336 88.5506 185.338 88.5515C185.603 88.6387 194.824 91.6471 199.206 88.6348C203.654 85.5817 198.651 77.3909 198.651 77.3909C198.651 77.3909 202.689 80.2182 205.486 84.3064C207.796 87.6808 205.201 89.5805 205.201 89.5805C200.082 93.1876 187.737 89.3437 185.64 88.652Z" fill="#A09FA0"/>
<path d="M160.887 162.977L160.708 162.823C160.404 162.619 159.462 162.864 159.262 163.137C158.735 163.866 160.631 164.417 161.031 163.833C161.2 163.596 161.073 163.187 160.887 162.977Z" fill="#AE6A3E"/>
<path d="M160.666 163.417L160.494 162.905L160.032 162.945C159.586 163.082 159.19 163.337 159.354 163.58C159.591 163.946 160.473 163.732 160.666 163.417Z" fill="#C67747"/>
<path d="M172.259 161.479L171.927 161.188C171.367 160.815 169.612 161.272 169.248 161.776C168.271 163.132 171.782 164.146 172.527 163.067C172.834 162.625 172.603 161.87 172.259 161.479Z" fill="#AE6A3E"/>
<path d="M171.853 162.296C172.101 161.892 171.879 161.519 171.532 161.346L170.676 161.422C169.856 161.673 169.116 162.145 169.413 162.597C169.859 163.271 171.496 162.88 171.853 162.296Z" fill="#C67747"/>
<path d="M158.398 111.599C157.289 110.473 156.827 109.753 157.798 110.011C158.756 110.267 159.673 110.494 160.553 110.695C160.553 110.695 160.556 110.696 160.559 110.697C160.559 110.697 160.562 110.697 160.565 110.698C163.711 111.415 166.374 111.795 168.625 111.93C168.676 112.348 168.979 112.142 169.082 112.558L169.054 112.634C164.161 112.258 159.903 111.153 159.086 110.964C157.656 110.638 158.394 111.593 158.398 111.599Z" fill="#181818"/>
<path d="M167.545 145.491L163.862 155.826L163.792 155.827C163.465 155.817 161.78 164.248 140.433 158.546C137.248 157.698 149.471 167.398 149.471 167.398L151.717 161.093C151.717 161.093 153.437 161.755 156.043 162.592L156.29 162.675L156.296 162.669C163.066 164.825 175.417 168.015 179.632 164.211C185.547 158.865 167.545 145.491 167.545 145.491Z" fill="#565656"/>
<path d="M163.792 155.827L167.545 145.491L163.862 155.826L163.792 155.827Z" fill="#0E0E0E"/>
<path d="M140.447 159.501C140.444 159.501 140.444 159.501 140.444 159.501C140.188 159.206 140.014 158.965 139.94 158.791C140.014 158.965 140.191 159.208 140.447 159.501ZM151.687 161.169L151.717 161.084C151.605 160.661 151.315 160.897 151.264 160.467C151.181 160.461 151.099 160.457 151.016 160.451C162.399 161.216 163.529 155.819 163.792 155.827L163.862 155.826L167.544 145.491L167.544 145.493C167.691 145.601 181.214 155.686 180.803 161.8C180.791 161.882 180.775 161.962 180.756 162.04C181.02 158.494 175.459 152.607 171.965 150.693C171.641 150.518 171.338 150.384 171.052 150.29C168.058 149.302 167.192 152.671 166.765 155.267C166.298 158.107 162.747 160.003 162.747 160.003C159.608 161.28 155.633 161.447 151.974 161.19L151.717 161.093L151.69 161.17C151.687 161.169 151.687 161.169 151.687 161.169Z" fill="#252525"/>
<path d="M151.69 161.17C151.69 161.17 168.645 166.665 175.359 165.316C175.359 165.316 180.729 164.424 180.822 161.565C180.822 161.565 181.236 164.57 177.932 165.617C174.643 166.66 172.921 166.868 163.005 164.667C152.902 162.424 151.69 161.17 151.69 161.17Z" fill="#2D2D2C"/>
<path d="M159.326 162.481C159.128 162.416 159.023 162.381 159.023 162.381C159.023 162.381 159.027 162.382 159.029 162.383C159.294 162.47 168.516 165.478 172.897 162.467C177.345 159.413 172.342 151.222 172.342 151.222C172.342 151.222 176.38 154.049 179.177 158.138C181.488 161.512 178.893 163.411 178.893 163.411C173.77 167.019 161.408 163.168 159.326 162.481Z" fill="#A09FA0"/>
<path d="M176.562 120.187L172.879 130.521L172.809 130.522C172.482 130.512 170.797 138.943 149.45 133.242C146.265 132.395 158.487 142.093 158.487 142.093L160.734 135.788C160.734 135.788 162.454 136.45 165.06 137.287L165.306 137.373L165.312 137.366C172.083 139.519 184.434 142.711 188.649 138.906C194.564 133.56 176.562 120.187 176.562 120.187Z" fill="#565656"/>
<path d="M160.277 135.156C157.391 134.983 153.841 134.416 149.45 133.242C146.265 132.395 158.487 142.093 158.487 142.093L160.734 135.788C160.629 135.372 160.323 135.581 160.277 135.156Z" fill="#383838"/>
<path d="M172.809 130.522L176.562 120.187L172.879 130.521L172.809 130.522Z" fill="#0E0E0E"/>
<path d="M160.991 135.885L160.734 135.788C160.631 135.373 160.328 135.579 160.278 135.161C171.433 135.834 172.55 130.514 172.809 130.522L172.879 130.521L176.562 120.187C176.561 120.188 176.561 120.188 176.561 120.188C176.708 120.296 190.221 130.373 189.82 136.488C189.809 136.572 189.793 136.654 189.773 136.734C190.033 133.188 184.475 127.302 180.981 125.393C180.654 125.214 180.35 125.081 180.066 124.987C177.074 124 176.209 127.366 175.781 129.963C175.315 132.802 171.763 134.7 171.763 134.7C168.623 135.978 164.65 136.141 160.991 135.885Z" fill="#252525"/>
<path d="M150.05 134.83C148.941 133.704 148.479 132.984 149.45 133.242C150.408 133.498 151.325 133.724 152.206 133.925C152.206 133.925 152.208 133.926 152.211 133.927C152.211 133.927 152.214 133.927 152.217 133.928C155.363 134.646 158.026 135.026 160.278 135.161C160.328 135.579 160.631 135.373 160.734 135.788L160.707 135.865C155.814 135.489 151.555 134.383 150.738 134.195C149.308 133.868 150.046 134.824 150.05 134.83Z" fill="#181818"/>
<path d="M160.707 135.865C160.707 135.865 177.663 141.36 184.376 140.009C184.376 140.009 189.747 139.118 189.838 136.262C189.838 136.262 190.253 139.265 186.949 140.313C183.659 141.357 181.937 141.564 172.022 139.363C161.919 137.12 160.707 135.865 160.707 135.865Z" fill="#2D2D2C"/>
<path d="M168.348 137.179C168.148 137.113 168.041 137.076 168.041 137.076C168.041 137.076 168.044 137.077 168.046 137.078C168.311 137.166 177.533 140.174 181.915 137.162C186.362 134.109 181.359 125.918 181.359 125.918C181.359 125.918 185.397 128.745 188.194 132.833C190.505 136.208 187.91 138.107 187.91 138.107C182.79 141.714 170.445 137.871 168.348 137.179Z" fill="#A09FA0"/>
<path d="M141.107 160.126C139.997 159 139.535 158.28 140.506 158.538C141.464 158.794 142.381 159.02 143.262 159.221C143.262 159.221 143.264 159.222 143.268 159.223C143.268 159.223 143.27 159.223 143.274 159.224C146.42 159.941 149.082 160.322 151.334 160.457C151.384 160.875 151.688 160.669 151.79 161.084L151.763 161.161C146.87 160.785 142.611 159.679 141.794 159.491C140.364 159.164 141.102 160.12 141.107 160.126Z" fill="#181818"/>
</svg>
